<?xml version="1.0" standalone="no"?>
<!DOCTYPE svg PUBLIC "-//W3C//DTD SVG 20010904//EN"
 "http://www.w3.org/TR/2001/REC-SVG-20010904/DTD/svg10.dtd">
<svg version="1.0" xmlns="http://www.w3.org/2000/svg"
 width="2133.000000pt" height="2133.000000pt" viewBox="0 0 2133.000000 2133.000000"
 preserveAspectRatio="xMidYMid meet">
<metadata>
Created by potrace 1.11, written by Peter Selinger 2001-2013
</metadata>
<g transform="translate(0.000000,2133.000000) scale(0.100000,-0.100000)"
fill="#000000" stroke="none">
<path d="M9195 21315 c-33 -8 -73 -17 -90 -20 -16 -3 -50 -10 -75 -15 -25 -5
-58 -12 -75 -15 -16 -3 -75 -15 -130 -25 -275 -52 -607 -112 -720 -130 -62
-10 -101 -17 -145 -25 -14 -3 -43 -7 -65 -11 -22 -3 -47 -7 -55 -9 -17 -5 -39
-8 -155 -25 -44 -7 -89 -14 -100 -16 -11 -2 -38 -6 -60 -9 -22 -3 -49 -7 -60
-9 -11 -2 -40 -7 -65 -10 -25 -3 -54 -8 -65 -10 -11 -2 -45 -7 -75 -11 -30 -4
-62 -9 -70 -10 -21 -4 -95 -14 -155 -20 -27 -3 -57 -8 -65 -10 -8 -2 -40 -7
-70 -10 -30 -3 -66 -8 -80 -10 -14 -2 -50 -7 -80 -10 -30 -3 -66 -8 -80 -10
-14 -2 -50 -6 -80 -10 -58 -6 -105 -12 -167 -20 -21 -2 -68 -7 -105 -10 -37
-3 -75 -7 -85 -9 -10 -2 -56 -7 -103 -11 -47 -4 -92 -9 -101 -10 -8 -2 -55 -6
-103 -10 -48 -3 -95 -8 -104 -10 -9 -1 -68 -6 -131 -10 -62 -3 -127 -8 -144
-10 -32 -4 -196 -13 -372 -20 -49 -2 -223 -7 -385 -9 -162 -3 -317 -8 -345
-11 -297 -30 -300 -30 -500 -70 -1042 -209 -1971 -869 -2527 -1795 -164 -274
-327 -647 -393 -900 -2 -8 -13 -46 -24 -85 -11 -38 -29 -117 -41 -175 -27
-133 -26 -127 -35 -180 -4 -25 -9 -52 -10 -60 -2 -8 -6 -46 -10 -85 -4 -38 -9
-79 -11 -90 -24 -124 -23 -619 1 -815 3 -19 7 -55 10 -80 3 -25 8 -52 10 -60
2 -8 6 -37 10 -65 5 -41 34 -189 50 -255 2 -8 11 -46 20 -85 22 -95 115 -374
160 -482 248 -596 627 -1113 1105 -1507 52 -43 104 -86 115 -95 47 -38 165
-121 174 -121 5 0 11 -4 13 -9 5 -16 247 -162 393 -237 210 -109 484 -220 665
-271 113 -31 322 -82 362 -88 24 -4 45 -8 48 -10 3 -1 32 -6 65 -10 32 -3 62
-8 65 -10 3 -1 32 -6 65 -10 33 -3 74 -8 90 -10 136 -18 459 -24 590 -11 44 4
82 9 85 11 3 1 32 6 65 10 33 3 89 13 125 22 36 8 72 16 80 18 141 29 490 147
666 225 27 12 76 34 109 48 181 80 502 254 695 377 84 54 110 64 110 45 0 -19
307 -319 409 -399 179 -142 354 -253 536 -340 82 -39 226 -100 250 -105 6 -2
55 -17 110 -34 55 -17 111 -34 125 -36 14 -3 72 -14 130 -25 149 -29 255 -39
410 -37 l135 1 0 -277 c0 -258 -1 -278 -17 -279 -10 -1 -21 -2 -25 -3 -5 -1
-27 -6 -50 -10 -86 -16 -199 -104 -244 -190 -49 -93 -47 23 -47 -2448 -1
-1278 -1 -2329 -1 -2336 -1 -10 -158 -12 -767 -10 l-767 3 -3 35 c-14 147
-119 277 -264 326 -53 17 -150 18 -2600 19 -2706 1 -2606 3 -2701 -45 -84 -43
-172 -161 -194 -259 -4 -19 -7 -648 -8 -1398 0 -750 -3 -1366 -7 -1368 -4 -2
-102 -5 -218 -5 -137 -1 -228 -6 -259 -14 -129 -35 -229 -132 -268 -262 -13
-43 -15 -302 -15 -2035 0 -1821 2 -1990 17 -2035 41 -123 123 -203 258 -253
22 -8 2682 -10 9925 -9 l9895 3 57 27 c74 34 152 112 186 186 l27 57 3 2005
c2 2164 5 2056 -47 2142 -36 58 -102 117 -169 150 l-67 33 -240 3 -240 4 1
1361 c0 1497 3 1432 -61 1532 -57 90 -153 154 -256 173 -24 4 -1191 7 -2594 6
-2361 -1 -2553 -2 -2595 -18 -60 -23 -133 -71 -169 -111 -40 -46 -80 -134 -89
-197 l-7 -53 -958 -3 c-526 -1 -957 1 -958 5 0 5 -2 1061 -3 2348 l-2 2340
-21 53 c-56 138 -190 241 -323 247 l-35 2 -1 190 -2 190 87 -5 c199 -13 679
-5 794 13 12 2 51 6 87 10 74 7 287 41 340 55 19 5 46 11 60 14 131 23 384
110 550 189 270 129 518 344 644 560 15 26 31 47 35 47 4 0 75 -33 157 -74
201 -100 398 -183 592 -250 156 -53 436 -127 535 -141 27 -3 59 -8 70 -11 119
-23 555 -22 676 1 12 2 49 6 84 10 34 3 87 10 117 15 30 5 71 12 90 15 19 3
42 8 50 10 8 2 29 7 45 9 54 10 299 74 386 101 288 92 629 252 889 418 817
521 1416 1341 1660 2271 36 137 71 311 85 421 3 22 7 51 10 65 31 178 38 714
10 890 -2 14 -7 50 -10 80 -9 76 -19 139 -40 250 -20 103 -19 100 -54 239 -18
68 -37 133 -43 145 -6 11 -11 22 -10 24 13 16 -111 335 -210 540 -88 185 -287
512 -383 630 -7 9 -46 58 -86 107 -94 117 -129 155 -279 306 -223 224 -426
383 -735 578 -182 115 -544 279 -785 356 -147 47 -399 113 -460 120 -8 1 -28
5 -45 8 -16 4 -50 9 -75 12 -25 3 -52 7 -60 9 -8 3 -42 7 -75 11 -33 3 -73 8
-90 10 -68 10 -215 16 -475 20 -257 4 -389 9 -563 20 -40 2 -117 7 -172 10
-55 3 -118 8 -140 10 -22 2 -78 7 -125 10 -47 4 -96 8 -110 10 -14 2 -61 6
-105 10 -44 3 -96 8 -115 10 -19 2 -62 7 -95 10 -33 3 -73 8 -90 10 -16 2 -57
7 -90 10 -33 3 -73 8 -90 10 -16 2 -52 7 -80 10 -27 3 -63 8 -80 10 -16 3 -57
7 -90 10 -33 3 -67 7 -75 10 -8 2 -37 6 -65 10 -71 8 -275 35 -304 40 -13 2
-45 7 -70 11 -25 3 -57 8 -71 10 -14 2 -44 7 -66 10 -23 2 -53 7 -65 9 -13 3
-44 8 -69 11 -25 3 -54 8 -65 10 -11 2 -40 7 -65 9 -25 3 -52 8 -60 10 -8 2
-35 7 -60 10 -25 3 -67 10 -95 15 -27 5 -66 12 -85 15 -19 3 -46 7 -60 10 -14
3 -41 7 -60 10 -19 3 -71 12 -115 20 -44 8 -97 17 -119 21 -21 3 -48 8 -60 10
-20 4 -100 18 -161 29 -16 2 -41 7 -55 10 -14 3 -38 8 -55 10 -35 7 -391 75
-420 81 -11 3 -42 9 -70 15 -27 6 -63 14 -80 17 -16 4 -70 7 -120 6 -78 0 -98
-4 -150 -29 -98 -47 -191 -158 -210 -250 -3 -16 -9 -59 -13 -95 -9 -88 -8
-980 2 -1155 4 -77 9 -174 11 -215 3 -41 7 -100 10 -130 3 -30 7 -86 10 -125
3 -38 7 -92 10 -120 3 -27 8 -77 11 -110 3 -33 7 -71 9 -85 2 -14 6 -56 10
-93 3 -37 8 -76 10 -85 1 -9 6 -44 9 -77 10 -83 41 -299 56 -385 5 -30 12 -73
16 -95 6 -38 26 -146 38 -210 14 -70 17 -81 21 -105 27 -145 109 -488 145
-610 5 -19 10 -39 10 -45 0 -11 -2274 -15 -2285 -4 -3 4 14 85 39 180 57 219
83 336 141 634 18 92 66 388 79 490 3 17 7 53 11 80 3 28 8 61 11 75 2 14 6
50 10 80 3 30 7 71 10 90 2 19 6 60 9 90 3 30 7 69 10 85 2 17 6 66 10 110 4
44 8 99 10 122 2 23 7 82 10 130 3 48 8 117 10 153 24 350 28 1265 6 1384 -23
131 -103 237 -217 291 -69 33 -197 41 -289 20z m3040 -5495 c105 -176 313
-490 345 -520 3 -3 27 -34 55 -70 141 -185 295 -359 490 -555 201 -201 400
-379 565 -505 25 -19 50 -39 56 -45 6 -5 54 -41 107 -80 54 -38 97 -75 97 -81
0 -6 -17 -38 -38 -70 -86 -132 -261 -245 -502 -322 -92 -30 -213 -61 -256 -67
-11 -2 -45 -8 -75 -14 -64 -12 -109 -19 -181 -26 -29 -3 -62 -8 -73 -10 -79
-16 -557 -24 -695 -11 -25 2 -61 4 -82 5 l-36 1 0 1394 0 1393 77 -151 c43
-83 109 -203 146 -266z m-3300 -887 c0 -709 -3 -1293 -7 -1299 -7 -11 -213
-11 -285 1 -21 3 -54 8 -73 10 -30 5 -136 27 -180 39 -104 28 -254 89 -364
148 -82 45 -242 149 -291 189 -119 98 -246 218 -278 263 l-20 29 24 19 c126
101 463 434 615 608 317 363 602 780 784 1148 36 72 67 132 70 132 3 0 5 -579
5 -1287z"/>
</g>
</svg>
