<svg aria-hidden="true" style="position: absolute; width: 0; height: 0; overflow: hidden;" version="1.1" xmlns="http://www.w3.org/2000/svg"><defs><symbol id="star" viewBox="0 0 50 47.86"><path d="M49.38 19.8a1.81 1.81 0 0 0-1.06-3.17L33.8 15.55a1.82 1.82 0 0 1-1.53-1.09L26.51 1.09A1.8 1.8 0 0 0 24.83 0c-.73.01-1.38.45-1.66 1.12L17.65 14.6a1.8 1.8 0 0 1-1.51 1.12l-14.5 1.35a1.8 1.8 0 0 0-1 3.19l11.11 9.41c.51.44.74 1.12.6 1.78l-3.19 14.2a1.81 1.81 0 0 0 2.73 1.93l12.38-7.66c.57-.35 1.3-.36 1.88-.02l12.52 7.43c.63.37 1.42.33 2-.1a1.8 1.8 0 0 0 .68-1.89L37.9 31.2c-.16-.66.06-1.35.56-1.79l10.92-9.61z"/></symbol><symbol id="search" viewBox="0 0 50 50"><path d="M.33 48.06l1.61 1.61c.44.44 1.16.44 1.61 0l15.19-15.19a19.18 19.18 0 0 0 11.94 4.16C41.33 38.64 50 29.97 50 19.32S41.33 0 30.68 0a19.35 19.35 0 0 0-19.32 19.32c0 4.51 1.56 8.65 4.16 11.94L.33 46.45a1.15 1.15 0 0 0 0 1.61zm15.58-28.74c0-8.15 6.63-14.77 14.77-14.77 8.15 0 14.77 6.63 14.77 14.77 0 8.15-6.63 14.77-14.77 14.77s-14.77-6.63-14.77-14.77z"/></symbol></defs></svg>