<svg aria-hidden="true" style="position: absolute; width: 0; height: 0; overflow: hidden;" version="1.1" xmlns="http://www.w3.org/2000/svg"><defs><symbol id="star" viewBox="0 0 50 47.86"><path d="M49.38 19.8a1.81 1.81 0 0 0-1.06-3.17L33.8 15.55a1.82 1.82 0 0 1-1.53-1.09L26.51 1.09A1.8 1.8 0 0 0 24.83 0c-.73.01-1.38.45-1.66 1.12L17.65 14.6a1.8 1.8 0 0 1-1.51 1.12l-14.5 1.35a1.8 1.8 0 0 0-1 3.19l11.11 9.41c.51.44.74 1.12.6 1.78l-3.19 14.2a1.81 1.81 0 0 0 2.73 1.93l12.38-7.66c.57-.35 1.3-.36 1.88-.02l12.52 7.43c.63.37 1.42.33 2-.1a1.8 1.8 0 0 0 .68-1.89L37.9 31.2c-.16-.66.06-1.35.56-1.79l10.92-9.61z"/></symbol><symbol id="search" viewBox="0 0 50 50"><path d="M.33 48.06l1.61 1.61c.44.44 1.16.44 1.61 0l15.19-15.19a19.18 19.18 0 0 0 11.94 4.16C41.33 38.64 50 29.97 50 19.32S41.33 0 30.68 0a19.35 19.35 0 0 0-19.32 19.32c0 4.51 1.56 8.65 4.16 11.94L.33 46.45a1.15 1.15 0 0 0 0 1.61zm15.58-28.74c0-8.15 6.63-14.77 14.77-14.77 8.15 0 14.77 6.63 14.77 14.77 0 8.15-6.63 14.77-14.77 14.77s-14.77-6.63-14.77-14.77z"/></symbol><symbol id="wall-e" viewBox="0 0 512 512"><path d="M491.25 401.3h-9.23v-64.58c0-5.1-4.13-9.22-9.22-9.22H352.85a9.23 9.23 0 0 0-9.22 9.22h-46.13v-110.7c0-5.1-4.13-9.23-9.22-9.23v-9.19c1.8.16 5.25.4 9.81.4 15.48 0 42.36-3.03 52.43-21.75 14.8 7.92 28.94 12.1 39.24 12.1 50.87 0 92.25-41.4 92.25-92.26s-41.38-92.25-92.25-92.25C345.17 13.84 281.63.34 281 .2a9.22 9.22 0 0 0-11.14 8.45c-.14 2.25-2.68 46.31 9.18 88.21h-55.3c11.85-41.9 9.32-85.96 9.18-88.21A9.22 9.22 0 0 0 221.78.2c-.64.14-64.14 13.64-108.77 13.64-50.87 0-92.26 41.38-92.26 92.25s41.39 92.25 92.26 92.25c12.9 0 31.85-6.49 50.56-18.8 6.3 7.58 22.84 23.95 48.2 23.95.87 0 1.82-.16 2.72-.2v13.5a9.23 9.23 0 0 0-9.23 9.23v110.7h-36.9c0-5.1-4.13-9.22-9.22-9.22H39.2a9.23 9.23 0 0 0-9.23 9.22v64.58h-9.22a9.23 9.23 0 0 0-9.23 9.22v92.26c0 5.09 4.13 9.22 9.23 9.22h470.48c5.1 0 9.23-4.13 9.23-9.22v-92.26c0-5.1-4.13-9.22-9.23-9.22zM289.24 124c11.04 22.43 28.08 40.1 45.75 52.6-5.16 12.36-33.02 13.8-45.8 12.56l-.9-.09V121.9c.33.7.6 1.42.95 2.11zm-110.89 44.48c13.73-11.66 26.37-26.57 35.19-44.48.34-.69.62-1.42.95-2.12v63.01c-18.61 1.16-31.2-10.68-36.14-16.41z" fill="#334f55"/><path d="M389.77 32.29c40.7 0 73.8 33.1 73.8 73.8s-33.1 73.8-73.8 73.8c-18.3 0-63.28-22-83.98-64.04-15.9-32.28-17.81-75.64-17.77-95.42 20.58 3.96 66.1 11.86 101.75 11.86z" fill="#d8d8d8"/><path d="M348.25 133.76c27.98 0 50.74-22.76 50.74-50.73s-22.76-50.74-50.74-50.74-50.74 22.76-50.74 50.74 22.76 50.73 50.74 50.73z" fill="#334f55"/><path d="M348.25 50.74c17.8 0 32.3 14.48 32.3 32.28s-14.5 32.3-32.3 32.3-32.29-14.5-32.29-32.3 14.5-32.28 32.3-32.28z" fill="#63cb6b"/><path d="M39.2 106.09c0-40.7 33.11-73.8 73.8-73.8 35.67 0 81.19-7.9 101.76-11.86.06 19.76-1.85 63.07-17.77 95.42-20.7 42.04-65.68 64.04-83.98 64.04-40.7 0-73.8-33.1-73.8-73.8z" fill="#d8d8d8"/><path d="M348.25 106.09c12.72 0 23.07-10.35 23.07-23.07s-10.35-23.06-23.07-23.06-23.06 10.35-23.06 23.07 10.35 23.06 23.06 23.06z" fill="#334f55"/><circle cx="348.25" cy="83.03" r="4.61" fill="#63cb6b"/><path d="M205.26 83.03c0-27.98-22.76-50.74-50.74-50.74s-50.74 22.76-50.74 50.74 22.76 50.73 50.74 50.73 50.74-22.76 50.74-50.73z" fill="#334f55"/><path d="M154.52 115.31c-17.8 0-32.29-14.48-32.29-32.28s14.49-32.3 32.3-32.3 32.28 14.5 32.28 32.3-14.49 32.28-32.29 32.28z" fill="#63cb6b"/><path d="M154.52 59.96c-12.71 0-23.06 10.35-23.06 23.07s10.35 23.06 23.06 23.06c12.72 0 23.06-10.35 23.06-23.06s-10.34-23.07-23.06-23.07z" fill="#334f55"/><circle cx="154.52" cy="83.03" r="4.61" fill="#63cb6b"/><path fill="#c59a83" d="M362.09 345.95h101.48v55.35H362.09z"/><g fill="#fff"><path d="M232.94 152.22h36.9v18.45h-36.9zM232.94 115.31h36.9v18.45h-36.9zM232.94 189.12h36.9v27.68h-36.9z"/></g><path fill="#c59a83" d="M223.71 235.24h55.35v101.48h-55.35z"/><path fill="#d8d8d8" d="M214.49 355.17h129.15v46.13H168.36v-46.13z"/><g fill="#c59a83"><path d="M48.43 345.95h101.48v55.35H48.43zM482.02 493.55H29.98v-73.8h452.04z"/></g><g fill="#334f55"><path d="M352.87 428.98h110.7v18.45h-110.7zM352.87 456.65h110.7v18.45h-110.7zM306.74 428.97c-15.26 0-27.68 12.42-27.68 27.68s12.42 27.68 27.68 27.68 27.67-12.42 27.67-27.68-12.41-27.68-27.67-27.68z"/></g><circle cx="306.74" cy="456.65" r="9.22" fill="#c59a83"/></symbol></defs></svg>